<svg height="512" viewBox="0 0 54 60" width="512" xmlns="http://www.w3.org/2000/svg"><g id="022---India-Location-Pin" fill="none"><g id="Icons" transform="translate(1)"><path id="Shape" d="m26 16.66c-.0735904 1.0653219-.3484414 2.1070411-.81 3.07-1.0606709 2.3178375-2.3256683 4.5366027-3.78 6.63-.76 1.15-1.5 2.18-2.09 3-.3056622.4110728-.7877401.6533563-1.3.6533563s-.9943378-.2422835-1.3-.6533563c-.59-.81-1.34-1.86-2.1-3-2.18-3.26-4.62-7.36-4.62-9.7-.00337615-.7393581.1079471-1.4747665.33-2.18.3784107-1.2304692 1.067174-2.342822 2-3.23 1.5251659-1.45930885 3.5592082-2.26646846 5.67-2.25h.34c4.196976.07986256 7.5801374 3.463024 7.66 7.66z" fill="#f44335"/><path id="Shape" d="m18.36 9h-.36c-.5098604.00054973-1.0186171.0474089-1.52.14 3.708445.59556328 6.456051 3.7645812 6.52 7.52-.0735904 1.0653219-.3484414 2.1070411-.81 3.07-1.0606709 2.3178375-2.3256683 4.5366027-3.78 6.63-.68 1-1.34 1.95-1.89 2.71l.2.28c.3056622.4110728.7877401.6533563 1.3.6533563s.9943378-.2422835 1.3-.6533563c.59-.81 1.33-1.84 2.09-3 1.4543317-2.0933973 2.7193291-4.3121625 3.78-6.63.4603424-.9598709.7351634-1.9980835.81-3.06-.0795-4.1893863-3.4508358-7.56954761-7.64-7.66z" fill="#c81e1e"/><ellipse id="Oval" cx="18.02" cy="17" fill="#f5f5f5" rx="3.02" ry="3"/><path id="Shape" d="m52 14.25v1.75c.0159235.4648688-.2907821.8793359-.74 1-.89.21-2.86.93-2.86 2.95s-1.16 5.7-1.74 7.32c-.0979033.2683464-.3058908.4820153-.571502.5871132-.2656111.105098-.5634882.0915913-.818498-.0371132l-2.27-1.5c-.423307-.2075552-.6441495-.6825747-.53-1.14l.52-1.47c.086717-.3524337-.0243319-.7241856-.290148-.9713114-.265816-.2471259-.6446639-.330825-.989852-.2186886l-.91.36c-.2540668.0787198-.5282472.0609159-.77-.05l-1.22-.77c-.384432-.1897132-.84702-.1132856-1.15.19l-.93.78c-.3640204.3623981-.3942796.941646-.07 1.34 1.1369266 1.1823192 2.0605673 2.5525553 2.73 4.05.22.69-.41 1.65-1.13 1.56-.56-.07-1.4-.16-1.83.26-.5923445.6299365-.9460486 1.4469929-1 2.31-.018418.2378706-.1212749.4613183-.29.63l-5.75 5.72c-1.7006347 1.7358731-3.5623313 3.306261-5.56 4.69-.3700278.2502414-.5292108.7155454-.39 1.14.58263 1.3051736.9053115 2.7113857.95 4.14 0 2.43-2 5-1.65 6.91.0412491.5350001-.3471 1.0071973-.88 1.07-1.0139937.0420331-1.914925.6594817-2.32 1.59-.1473078.2851943-.4225668.4823392-.74.53-.6241385.1769588-1.2954299.0250136-1.7825278-.4034708-.4870978-.4284844-.7234009-1.0749211-.6274722-1.7165292 0-3-3-7-5-11-1.74-3.46-2-9.87-2-11.53-.00625999-.2553881-.11002393-.4986967-.29-.68l-.37-.38c-.24340294-.2474993-.5977465-.3510641-.93612615-.2736037-.33837964.0774604-.61238122.3248632-.72387385.6536037-.14949875.548-.53997405.9983423-1.06126439 1.2239754-.52129033.2256331-1.11687827.2020944-1.61873561-.0639754-1.12595364-.2676974-2.13160555-.9006252-2.86-1.8-.13907542-.259092-.157065-.5662641-.04918415-.8398191.10788086-.273555.33069594-.4857619.60918415-.5801809.36735429-.1247994.62936998-.4508193.67221458-.8364206.04284459-.3856013-.14121514-.7611852-.47221458-.9635794l-1.8-1.25c-.25303778-.1585031-.42201083-.4217847-.46071193-.7178481-.0387011-.2960635.05691893-.5939324.26071193-.8121519l.7-.69c.25927003-.2655008.64424522-.3655944 1-.26l1.21.36c.39099772.0963484.80163889-.0512318 1.04185522-.3744319.24021634-.3232002.26313376-.7589534.05814478-1.1055681l-1.72-2.3c-.20266981-.3242708-.20266981-.7357292 0-1.06l1.07-2.1c.27972587-.4201147.82866912-.5659277 1.28-.34l.69.44c.45133088.2259277 1.00027413.0801147 1.28-.34l3.49-4.73c-.2403976.6956358-.3719473 1.4242186-.39 2.16 0 2.32 2.4 6.44 4.58 9.68-1.5107489 1.3972824-2.0111142 3.5774736-1.2608274 5.4936756.7502869 1.916202 2.597974 3.1770158 4.6558274 3.1770158s3.9055405-1.2608138 4.6558274-3.1770158c.7502868-1.916202.2499215-4.0963932-1.2608274-5.4936756 1.4543317-2.0933973 2.7193291-4.3121625 3.78-6.63l3.14 1.71c.6079487.327249 1.3660314.1042835 1.7-.5.2281906-.4269501.7294392-.6291344 1.19-.48l1.59.48c.3557548.1055944.74073.0055008 1-.26l1.28-1.12c.3032856-.30298.3797132-.765568.19-1.15l-.56-.78c-.1897132-.384432-.1132856-.84702.19-1.15l1.38-1.19c.2369659-.235413.5758246-.3369678.9032068-.270688s.6000553.2916417.7267932.600688c.56 1.38.85 3.89 2.74 3.27 3-1 2.74-3.9 5.74-5.89 2.39-1.59 4.29-1 5-.4.4783652.415186.718372 1.0414536.64 1.67z" fill="#60a917"/><path id="Shape" d="m20.75 5.53c-1.0867022.92749513-1.9108433 2.12405136-2.39 3.47h-.36c-2.1038878-.0112613-4.1298132.79552318-5.65 2.25-.0443732-.2470307-.1800164-.4683433-.38-.62l-3.2-2.35c-.39529621-.30046617-.51025828-.84547156-.27-1.28l.11-.24c.22592772-.45133088.08011466-1.00027413-.34-1.28l-1.43-1c-.22202031-.14673157-.37639517-.3759089-.42894771-.63679471-.05255253-.2608858.00105256-.53195838.14894771-.75320529l1.15-1.72c.20141579-.24917888.5100349-.38675607.83-.37h3.46c.265803-.00153676.5212812.10281349.71.29l2.2 2.19c.2920104.27687551.7215326.35174636 1.09.19l2.6-1.28c.4513309-.22592772 1.0002741-.08011466 1.28.34l1 1.52c.2733254.40160474.2184874.94154812-.13 1.28z" fill="#60a917"/><g fill="#549414"><path id="Shape" d="m3.63 19.45c.10291023-.0728075.19112632-.1644165.26-.27-.10291023.0728075-.19112632.1644165-.26.27z"/><path id="Shape" d="m37.65 18.86c.4547757-.1460326.8810048-.3692955 1.26-.66-.4048276-.8408961-.7393045-1.7138809-1-2.61-.1267379-.3090463-.399411-.5344082-.7267932-.600688s-.6662409.035275-.9032068.270688l-1.14 1c.45 1.37.86 3.13 2.51 2.6z"/><path id="Shape" d="m30.8 20.65.27-.24c-.4040714-.0526432-.7996717.1451569-1 .5.2683879.0149697.5315014-.078742.73-.26z"/><path id="Shape" d="m36.61 24.37c-.3429354-.4032193-.312247-1.0038338.07-1.37l.26-.22-1.18-.75c-.384432-.1897132-.84702-.1132856-1.15.19l-.93.78c-.3640204.3623981-.3942796.941646-.07 1.34 1.1369266 1.1823192 2.0605673 2.5525553 2.73 4.05.22.69-.41 1.65-1.13 1.56-.56-.07-1.4-.16-1.83.26-.5923445.6299365-.9460486 1.4469929-1 2.31-.018418.2378706-.1212749.4613183-.29.63l-5.7 5.75c-1.7006347 1.7358731-3.5623313 3.306261-5.56 4.69-.3700278.2502414-.5292108.7155454-.39 1.14.58263 1.3051736.9053115 2.7113857.95 4.14 0 2.43-2 5-1.65 6.91.0412491.5350001-.3471 1.0071973-.88 1.07-.9008139.0421117-1.7183834.5394351-2.17 1.32.4713743.6758703 1.3090212.9934615 2.11.8.3174332-.0476608.5926922-.2448057.74-.53.405075-.9305183 1.3060063-1.5479669 2.32-1.59.5329-.0628027.9212491-.5349999.88-1.07-.34-1.9 1.65-4.48 1.65-6.91-.0446885-1.4286143-.36737-2.8348264-.95-4.14-.1392108-.4244546.0199722-.8897586.39-1.14 1.9976687-1.383739 3.8593653-2.9541269 5.56-4.69l5.72-5.72c.1687251-.1686817.271582-.3921294.29-.63.0539514-.8630071.4076555-1.6800635 1-2.31.43-.42 1.27-.33 1.83-.26.72.09 1.35-.87 1.13-1.56-.6754729-1.4989215-1.6059443-2.869252-2.75-4.05z"/><path id="Shape" d="m51.4 12.57c-1.056233-.7017245-2.3955568-.8221131-3.56-.32.1981356.0852098.3859966.1925589.56.32.4668042.4254636.691668 1.0550821.6 1.68v1.75c.0159235.4648688-.2907821.8793359-.74 1-.89.21-2.86.93-2.86 2.95-.2160149 2.3687179-.7543161 4.6968703-1.6 6.92l1.47.95c.2550098.1287045.5528869.1422112.818498.0371132.2656112-.1050979.4735987-.3187668.571502-.5871132.58-1.62 1.74-5.18 1.74-7.32s2-2.74 2.86-2.95c.4492179-.1206641.7559235-.5351312.74-1v-1.75c.091668-.6249179-.1331958-1.2545364-.6-1.68z"/><path id="Shape" d="m13 30c.0068402-1.3923462.59395-2.7187794 1.62-3.66-2.18-3.24-4.62-7.34-4.62-9.68-.00337615-.7393581.1079471-1.4747665.33-2.18l-3 4c1.07369798 2.776202 2.49143414 5.4067409 4.22 7.83-1.67293735 1.5950565-2.03446828 4.1289276-.8743673 6.1282 1.1601011 1.9992725 3.5394008 2.9427448 5.7543673 2.2818-2.037959-.6739734-3.418349-2.5735189-3.43-4.72z"/></g><path id="Shape" d="m23 30c.0112132 2.292751-1.5383993 4.2993296-3.7594997 4.8681406-2.2211004.5688111-4.5444538-.4459232-5.6366648-2.4618369-1.0922111-2.0159136-.6733625-4.5163581 1.0161645-6.0663037.76 1.15 1.51 2.2 2.1 3 .3056622.4110728.7877401.6533563 1.3.6533563s.9943378-.2422835 1.3-.6533563c.59-.81 1.33-1.84 2.09-3 1.0149645.9464734 1.5908988 2.2722089 1.59 3.66z" fill="#007900"/></g><g id="Layer_11" fill="#000"><path id="Shape" d="m15 17c0 2.209139 1.790861 4 4 4s4-1.790861 4-4-1.790861-4-4-4-4 1.790861-4 4zm6 0c0 1.1045695-.8954305 2-2 2s-2-.8954305-2-2 .8954305-2 2-2 2 .8954305 2 2z"/><path id="Shape" d="m1.28 25.59-.69.69c-.42558663.4273567-.63559296 1.0239473-.57154595 1.6236602.06404702.599713.39530711 1.1384985.90154595 1.4663398l1.86 1.28c-.56668388.1887568-1.01934475.6209127-1.23414966 1.1782444-.21480492.5573317-.16926936 1.1815008.12414966 1.7017556.84285862 1.116558 2.04281479 1.9106466 3.4 2.25.75292333.337397 1.61439365.3356746 2.36596183-.0047303.75156819-.340405 1.3210501-.9867984 1.56403817-1.7752697l.37.37c0 1.89.29 8.34 2.1 12 2 3.92 4.9 7.88 4.9 10.53-.0830815.8201057.196823 1.6355053.7660759 2.2316824.5692529.596177 1.3708566.913438 2.1939241.8683176.8759438.102885 1.7228374-.35252 2.12-1.14.71-1.55 1.92-.47 2.93-1.82.3075868-.4123308.4306727-.9336357.34-1.44.0136367-.9832976.2495229-1.9507731.69-2.83 1.14-3 1.48-4.62 0-8.35 3.36-2.24 6.17-5.27 11.44-10.53.93-.92.29-2 1.24-2.92.3292992-.0733408.6707008-.0733408 1 0 .7129759.0218228 1.3933674-.2987474 1.8304752-.8624385.4371079-.5636911.578178-1.3024719.3795248-1.9875615-.6306719-1.5226557-1.5318802-2.9185122-2.66-4.12l-.31-.23.92-.79s0-.08 0-.1l1.3.81c.4946877.2488173 1.0703941.2814045 1.59.09l.88-.44-.55 1.57c-.2174646.887432.1941337 1.8094122 1 2.24l2.27 1.48c.5122938.2957377 1.1292229.3495277 1.684968.1469123.5557452-.2026154.9932906-.6408493 1.195032-1.1969123.54-1.51 1.8-5.28 1.8-7.66 0-1.28 1.31-1.79 2.09-2 .8731566-.230244 1.4837265-1.0170187 1.49-1.92v-1.8c.0842108-.9190444-.2898624-1.8205607-1-2.41-.95-.77-3.33-1.57-6.21.34-3.16 2.11-3 4.95-5.5 5.78-.107503.0331464-.222497.0331464-.33 0-.45-.23-.82-1.88-1.16-2.72-.2462643-.6086651-.7755991-1.057685-1.4162773-1.2013885-.6406783-.1437036-1.3110835.0362158-1.7937227.4813885l-1.44 1.24c-.6111607.6076912-.7642898 1.5385551-.38 2.31.06.11.09.14.55.78l-1.22 1.2-1.58-.47c-.9280121-.2862963-1.9275731.1354594-2.37 1-.0661861.1210816-.2154333.1693674-.34.11l-2.37-1.29c.3388753-.8581191.52828-1.7679378.56-2.69-.0612131-4.1785742-3.068717-7.73061229-7.18-8.48.443647-.70671719.9819811-1.34935354 1.6-1.91.7153114-.66788966.8422481-1.75531351.3-2.57l-1-1.52c-.5594517-.84022933-1.6573382-1.13185543-2.56-.68l-2.58 1.27-2.2-2.19c-.3675775-.36468153-.8622636-.57259312-1.38-.58h-3.46c-.66713961.0012352-1.28973802.33503797-1.66.89l-1.15 1.71c-.29747648.44314056-.40548833.98680021-.3 1.51.2 1 .72 1.17 2.29 2.25l-.12.23c-.43305887.8685322-.18007766 1.92262057.6 2.5l2.87 2.1c-.7076168.8260856-1.2507066 1.7798869-1.6 2.81l-3.42 4.63-.59-.38c-.91171624-.5252005-2.07445651-.2541858-2.66.62-.06.08-.08.14-1.11 2.16-.42222662.6580988-.42222662 1.5019012 0 2.16l1.7 2.22-1.25-.37c-.67336158-.1496907-1.37633324.0581773-1.86.55zm24.72-8.93c0 2-2.43 6.54-6.49 12.1-.1167902.1592857-.3024858.2533939-.5.2533939s-.3832098-.0941082-.5-.2533939c-4.04-5.56-6.51-10.09-6.51-12.1.0445299-1.8116146.8071852-3.5312717 2.1200646-4.7803826 1.3128793-1.2491109 3.0683488-1.92526965 4.8799354-1.8796174 1.8115866-.04565225 3.5670561.6305065 4.8799354 1.8796174 1.3128794 1.2491109 2.0755347 2.968768 2.1200646 4.7803826zm-7 17.34c-1.4265425-.0050241-2.7424433-.7694044-3.4535379-2.0060907-.7110947-1.2366863-.7097466-2.7584847.0035379-3.9939093.46.66.92 1.3 1.37 1.91.4941547.666823 1.2750351 1.0600721 2.105 1.0600721s1.6108453-.3932491 2.105-1.0600721c.43-.6.89-1.23 1.34-1.88.699793 1.2366134.6910464 2.7516438-.022978 3.9800949-.7140243 1.2284511-2.0261396 1.9859121-3.447022 1.9899051zm-9.16-29.3-1.45-1 1.15-1.7h3.46l2.2 2.19c.6100488.60777723 1.5406413.75683317 2.31.37l2.57-1.27 1 1.5c-1.0156382.89515656-1.8389378 1.98721921-2.42 3.21-1.8421552.05714224-3.6223574.67846773-5.1 1.78l-3.16-2.3.11-.23c.4478429-.89773556.1612893-1.98835016-.67-2.55zm-3.84 21.91c.50006304-.6793976.52006554-1.5995126.05-2.3-1.86-2.46-1.67-2.17-1.6-2.31l1-2 .58.38c.89498192.5143397 2.03437028.2630677 2.63-.58l1.49-2c.48 2.31 2.22 5.46 4.18 8.45-1.9812435 2.4494493-1.7306391 6.0140404.5738331 8.1621874s5.8778616 2.148147 8.1823338 0 2.5550766-5.7127381.5738331-8.1621874c1.1092633-1.6506454 2.1113273-3.3708553 3-5.15l2.19 1.19c1.1085339.5873745 2.4832798.178065 3.09-.92l1.6.48c.6781058.1926537 1.4075555.0140904 1.92-.47l1.33-1.16c.6488476-.6526727.7685417-1.6638812.29-2.45l-.46-.64 1.38-1.13c.44 1.1.71 3.05 2.1 3.76.5997413.2790123 1.2890474.293524 1.9.04 3.46-1.14 3.2-4.15 6-6 1.91-1.27 3.34-.85 3.83-.46.27.22.21.26.24 2.69-2.27.54-3.62 2-3.62 3.92 0 2.12-1.29 5.87-1.69 7l-2.21-1.44c-.1-.08-.33.62.42-1.53.1764049-.7159853-.0554769-1.4709542-.6033714-1.9644775-.5478946-.4935233-1.3229056-.6455267-2.0166286-.3955225l-.86.34-1.22-.77c-.7436343-.3712097-1.6393476-.2438194-2.25.32l-1 .85c-.7167695.7088734-.7939189 1.8403978-.18 2.64 1.0436791 1.0879851 1.9047686 2.3374091 2.55 3.7-.0067102.1034451-.0533176.2002452-.13.27-.9021072-.216041-1.8535385-.0139996-2.59.55-.7581077.8017737-1.2049447 1.8479395-1.26 2.95-4.94 4.92-8 8.19-11.14 10.28-.7498287.5070371-1.0656407 1.4544731-.77 2.31.5356614 1.1985296.8377287 2.4882554.89 3.8 0 2.24-2 4.7-1.65 7-1.3459641.0745587-2.5343671.9029569-3.07 2.14-1 .13-1.28-.21-1.28-1.13 0-3.34-3.08-7.37-5.11-11.42-1.66-3.32-1.87-9.83-1.89-11.1-.0177176-.5086817-.2287141-.9914704-.59-1.35l-.37-.37c-.48332122-.4815545-1.17878222-.6835041-1.84485426-.535713-.66607203.147791-1.21085355.6249312-1.44514574 1.265713-.23.6-.52.87-1.44.56-.87809319-.2070401-1.67504014-.6698957-2.29-1.33.73592723-.2404838 1.26695062-.8841117 1.36324454-1.6523231.09629391-.7682114-.2594414-1.5229929-.91324454-1.9376769l-1.86-1.31.65-.7 1.26.37c.78421057.1952151 1.60884307-.1007056 2.09-.75z"/></g></g></svg>